<svg id="Layer_2" data-name="Layer 2" xmlns="http://www.w3.org/2000/svg" viewBox="" style="">
    <defs>
        <style>.cls-1{fill:none;stroke:#000;stroke-linecap:round;stroke-linejoin:round;stroke-width:7px;}</style>
    </defs>
    <title>center-logo</title>
    <path class="cls-1 QwtHWLaJ_0" d="M499.49,229l-112.78,7.83V420.1l-9.4,6.27a15.7,15.7,0,0,0-7.83,7.83c-.29.69-2.84,6.78,0,9.4,2,1.85,5.72,1.06,7.83,0,4.53-2.28,6.88-8.44,6.27-15.67l3.13-6.26,108.08-12.53" transform="translate(-364.65 -225.5)"></path>
    <path class="cls-1 QwtHWLaJ_1" d="M375.75,335.52" transform="translate(-364.65 -225.5)"></path>
    <path class="cls-1 QwtHWLaJ_2" d="M4.83,110.02L94.12,95.92"></path>
    <path class="cls-1 QwtHWLaJ_3" d="M508.11,413.05c-.09-2.2-.73-23.85,9.4-28.19,1.7-.73,5.82-1.88,7.83,0,2.56,2.4-.61,7.62,1.57,9.4,2.77,2.26,9-5.32,15.66-3.14,3.39,1.11,3.45,3.62,7.83,4.7,1.19.3,1.62.22,7.83,0,7.46-.26,8.31-.2,9.4,0,3.79.71,4.51,2,7.83,3.14,3.52,1.16,6.87,1,12.54,0,16-2.94,24.12-4.45,31.32-9.4,8.58-5.9,14.09-15.47,18.8-36,6.37-27.79,10.14-53.41,6.27-64.22-.67-1.86-4-4.14-6.27-3.14-3.14,1.4-7.69,31.28-9.4,133.15" transform="translate(-364.65 -225.5)"></path>
    <path class="cls-1 QwtHWLaJ_4" d="M650.65,409.92c4.27-30.84,7.26-40.83,9.4-40.73,3.06.15,2.53,20.74,10.18,22.72,7.29,1.88,16-14.62,20.37-12.53,4.53,2.16-1.5,21.64,3.13,23.49,2.34.94,4.95-3.6,12.53-4.7a23.16,23.16,0,0,1,6.27,0c3.33.36,27.93,3,40.72-1.56,12-4.25,17.45-16.12,26.63-36a162.88,162.88,0,0,0,12.53-39.16s-2.59,10.91-12.64,54.68c-1.8,7.83-3.85,16.71-6.15,26.77" transform="translate(-364.65 -225.5)"></path>
    <path class="cls-1 QwtHWLaJ_5" d="M800.24,365.28c-1.49.56-11.23,4.38-14.09,14.1-2,6.76-.85,17,4.7,18.79,4.76,1.52,10.28-4,11-4.7" transform="translate(-364.65 -225.5)"></path>
    <path class="cls-1 QwtHWLaJ_6" d="M803.38,391.91" transform="translate(-364.65 -225.5)"></path>
    <path class="cls-1 QwtHWLaJ_7" d="M810.43,377c-.32.33-4.55,4.84-3.14,11,.72,3.12,3.13,7.65,6.27,7.83,6.44.39,10.52-17.82,14.1-17.23,2,.33,3.34,6.29,3.13,23.5" transform="translate(-364.65 -225.5)"></path>
    <path class="cls-1 QwtHWLaJ_8" d="M721.14,359.8c-3-.57-6.83,3.29-6.27,6.26.67,3.48,7.3,5.24,9.4,3.13S724.62,360.46,721.14,359.8Z" transform="translate(-364.65 -225.5)"></path>
<style data-made-with="vivus-instant">.QwtHWLaJ_0{stroke-dasharray:471 473;stroke-dashoffset:472;animation:QwtHWLaJ_draw_0 2900ms ease-in-out 0ms infinite,QwtHWLaJ_fade 2900ms linear 0ms infinite;}.QwtHWLaJ_1{stroke-dasharray:0 2;stroke-dashoffset:1;animation:QwtHWLaJ_draw_1 2900ms ease-in-out 0ms infinite,QwtHWLaJ_fade 2900ms linear 0ms infinite;}.QwtHWLaJ_2{stroke-dasharray:91 93;stroke-dashoffset:92;animation:QwtHWLaJ_draw_2 2900ms ease-in-out 0ms infinite,QwtHWLaJ_fade 2900ms linear 0ms infinite;}.QwtHWLaJ_3{stroke-dasharray:395 397;stroke-dashoffset:396;animation:QwtHWLaJ_draw_3 2900ms ease-in-out 0ms infinite,QwtHWLaJ_fade 2900ms linear 0ms infinite;}.QwtHWLaJ_4{stroke-dasharray:350 352;stroke-dashoffset:351;animation:QwtHWLaJ_draw_4 2900ms ease-in-out 0ms infinite,QwtHWLaJ_fade 2900ms linear 0ms infinite;}.QwtHWLaJ_5{stroke-dasharray:55 57;stroke-dashoffset:56;animation:QwtHWLaJ_draw_5 2900ms ease-in-out 0ms infinite,QwtHWLaJ_fade 2900ms linear 0ms infinite;}.QwtHWLaJ_6{stroke-dasharray:0 2;stroke-dashoffset:1;animation:QwtHWLaJ_draw_6 2900ms ease-in-out 0ms infinite,QwtHWLaJ_fade 2900ms linear 0ms infinite;}.QwtHWLaJ_7{stroke-dasharray:71 73;stroke-dashoffset:72;animation:QwtHWLaJ_draw_7 2900ms ease-in-out 0ms infinite,QwtHWLaJ_fade 2900ms linear 0ms infinite;}.QwtHWLaJ_8{stroke-dasharray:33 35;stroke-dashoffset:34;animation:QwtHWLaJ_draw_8 2900ms ease-in-out 0ms infinite,QwtHWLaJ_fade 2900ms linear 0ms infinite;}@keyframes QwtHWLaJ_draw{100%{stroke-dashoffset:0;}}@keyframes QwtHWLaJ_fade{0%{stroke-opacity:1;}79.3103448275862%{stroke-opacity:1;}100%{stroke-opacity:0;}}@keyframes QwtHWLaJ_draw_0{3.4482758620689653%{stroke-dashoffset: 472}42.06896551724138%{ stroke-dashoffset: 0;}100%{ stroke-dashoffset: 0;}}@keyframes QwtHWLaJ_draw_1{3.793103448275862%{stroke-dashoffset: 1}42.41379310344828%{ stroke-dashoffset: 0;}100%{ stroke-dashoffset: 0;}}@keyframes QwtHWLaJ_draw_2{4.137931034482759%{stroke-dashoffset: 92}42.758620689655174%{ stroke-dashoffset: 0;}100%{ stroke-dashoffset: 0;}}@keyframes QwtHWLaJ_draw_3{4.482758620689655%{stroke-dashoffset: 396}43.103448275862064%{ stroke-dashoffset: 0;}100%{ stroke-dashoffset: 0;}}@keyframes QwtHWLaJ_draw_4{4.827586206896552%{stroke-dashoffset: 351}43.44827586206896%{ stroke-dashoffset: 0;}100%{ stroke-dashoffset: 0;}}@keyframes QwtHWLaJ_draw_5{5.172413793103448%{stroke-dashoffset: 56}43.79310344827586%{ stroke-dashoffset: 0;}100%{ stroke-dashoffset: 0;}}@keyframes QwtHWLaJ_draw_6{5.517241379310345%{stroke-dashoffset: 1}44.13793103448276%{ stroke-dashoffset: 0;}100%{ stroke-dashoffset: 0;}}@keyframes QwtHWLaJ_draw_7{5.862068965517241%{stroke-dashoffset: 72}44.48275862068966%{ stroke-dashoffset: 0;}100%{ stroke-dashoffset: 0;}}@keyframes QwtHWLaJ_draw_8{6.206896551724138%{stroke-dashoffset: 34}44.827586206896555%{ stroke-dashoffset: 0;}100%{ stroke-dashoffset: 0;}}</style></svg>
