<svg id="Layer_2" xmlns="http://www.w3.org/2000/svg" viewBox="0 0 469.66 222.71" width="100" height="40">
    <defs>
        <style>.cls-1{fill:none;stroke:#000;stroke-linecap:round;stroke-linejoin:round;stroke-width:7px;}</style>
    </defs>
    <title>center-logo</title>
    <path class="cls-1 KkCchODr_0"
          d="M499.49,229l-112.78,7.83V420.1l-9.4,6.27a15.7,15.7,0,0,0-7.83,7.83c-.29.69-2.84,6.78,0,9.4,2,1.85,5.72,1.06,7.83,0,4.53-2.28,6.88-8.44,6.27-15.67l3.13-6.26,108.08-12.53"
          transform="translate(-364.65 -225.5)"></path>
    <path class="cls-1 KkCchODr_1" d="M375.75,335.52" transform="translate(-364.65 -225.5)"></path>
    <path class="cls-1 KkCchODr_2" d="M4.83,110.02L94.12,95.92"></path>
    <path class="cls-1 KkCchODr_3"
          d="M508.11,413.05c-.09-2.2-.73-23.85,9.4-28.19,1.7-.73,5.82-1.88,7.83,0,2.56,2.4-.61,7.62,1.57,9.4,2.77,2.26,9-5.32,15.66-3.14,3.39,1.11,3.45,3.62,7.83,4.7,1.19.3,1.62.22,7.83,0,7.46-.26,8.31-.2,9.4,0,3.79.71,4.51,2,7.83,3.14,3.52,1.16,6.87,1,12.54,0,16-2.94,24.12-4.45,31.32-9.4,8.58-5.9,14.09-15.47,18.8-36,6.37-27.79,10.14-53.41,6.27-64.22-.67-1.86-4-4.14-6.27-3.14-3.14,1.4-7.69,31.28-9.4,133.15"
          transform="translate(-364.65 -225.5)"></path>
    <path class="cls-1 KkCchODr_4"
          d="M650.65,409.92c4.27-30.84,7.26-40.83,9.4-40.73,3.06.15,2.53,20.74,10.18,22.72,7.29,1.88,16-14.62,20.37-12.53,4.53,2.16-1.5,21.64,3.13,23.49,2.34.94,4.95-3.6,12.53-4.7a23.16,23.16,0,0,1,6.27,0c3.33.36,27.93,3,40.72-1.56,12-4.25,17.45-16.12,26.63-36a162.88,162.88,0,0,0,12.53-39.16s-2.59,10.91-12.64,54.68c-1.8,7.83-3.85,16.71-6.15,26.77"
          transform="translate(-364.65 -225.5)"></path>
    <path class="cls-1 KkCchODr_5"
          d="M800.24,365.28c-1.49.56-11.23,4.38-14.09,14.1-2,6.76-.85,17,4.7,18.79,4.76,1.52,10.28-4,11-4.7"
          transform="translate(-364.65 -225.5)"></path>
    <path class="cls-1 KkCchODr_6" d="M803.38,391.91" transform="translate(-364.65 -225.5)"></path>
    <path class="cls-1 KkCchODr_7"
          d="M810.43,377c-.32.33-4.55,4.84-3.14,11,.72,3.12,3.13,7.65,6.27,7.83,6.44.39,10.52-17.82,14.1-17.23,2,.33,3.34,6.29,3.13,23.5"
          transform="translate(-364.65 -225.5)"></path>
    <path class="cls-1 KkCchODr_8"
          d="M721.14,359.8c-3-.57-6.83,3.29-6.27,6.26.67,3.48,7.3,5.24,9.4,3.13S724.62,360.46,721.14,359.8Z"
          transform="translate(-364.65 -225.5)"></path>
    <style>.KkCchODr_0{stroke-dasharray:471
        473;stroke-dashoffset:472;animation:KkCchODr_draw 960ms ease 0ms forwards;}.KkCchODr_1{stroke-dasharray:0
        2;stroke-dashoffset:1;animation:KkCchODr_draw 2ms ease 960ms forwards;}.KkCchODr_2{stroke-dasharray:91
        93;stroke-dashoffset:92;animation:KkCchODr_draw 187ms ease 962ms forwards;}.KkCchODr_3{stroke-dasharray:395
        397;stroke-dashoffset:396;animation:KkCchODr_draw 805ms ease 1149ms forwards;}.KkCchODr_4{stroke-dasharray:350
        352;stroke-dashoffset:351;animation:KkCchODr_draw 713ms ease 1954ms forwards;}.KkCchODr_5{stroke-dasharray:55
        57;stroke-dashoffset:56;animation:KkCchODr_draw 113ms ease 2668ms forwards;}.KkCchODr_6{stroke-dasharray:0
        2;stroke-dashoffset:1;animation:KkCchODr_draw 2ms ease 2782ms forwards;}.KkCchODr_7{stroke-dasharray:71
        73;stroke-dashoffset:72;animation:KkCchODr_draw 146ms ease 2784ms forwards;}.KkCchODr_8{stroke-dasharray:33
        35;stroke-dashoffset:34;animation:KkCchODr_draw 69ms ease 2930ms forwards;}@keyframes
        KkCchODr_draw{100%{stroke-dashoffset:0;}}@keyframes
        KkCchODr_fade{0%{stroke-opacity:1;}94.44444444444444%{stroke-opacity:1;}100%{stroke-opacity:0;}}
    </style>
</svg>